<?xml version="1.0" encoding="UTF-8" standalone="no"?>
<!-- Created with Inkscape (http://www.inkscape.org/) -->

<svg
   xmlns:dc="http://purl.org/dc/elements/1.1/"
   xmlns:cc="http://creativecommons.org/ns#"
   xmlns:rdf="http://www.w3.org/1999/02/22-rdf-syntax-ns#"
   xmlns:svg="http://www.w3.org/2000/svg"
   xmlns="http://www.w3.org/2000/svg"
   xmlns:sodipodi="http://sodipodi.sourceforge.net/DTD/sodipodi-0.dtd"
   xmlns:inkscape="http://www.inkscape.org/namespaces/inkscape"
   version="1.1"
   id="svg834"
   xml:space="preserve"
   width="664.20685"
   height="664.20685"
   viewBox="0 0 664.20685 664.20682"
   sodipodi:docname="lua-editor.svg"
   inkscape:export-filename="/home/anoko/projects/aoflagger/data/icons/hicolor/16x16/actions/lua-editor.png"
   inkscape:export-xdpi="2.3099999"
   inkscape:export-ydpi="2.3099999"
   inkscape:version="0.92.4 (5da689c313, 2019-01-14)"><metadata
     id="metadata840"><rdf:RDF><cc:Work
         rdf:about=""><dc:format>image/svg+xml</dc:format><dc:type
           rdf:resource="http://purl.org/dc/dcmitype/StillImage" /><dc:title></dc:title></cc:Work></rdf:RDF></metadata><defs
     id="defs838" /><sodipodi:namedview
     pagecolor="#ffffff"
     bordercolor="#666666"
     borderopacity="1"
     objecttolerance="10"
     gridtolerance="10"
     guidetolerance="10"
     inkscape:pageopacity="0"
     inkscape:pageshadow="2"
     inkscape:window-width="1366"
     inkscape:window-height="711"
     id="namedview836"
     showgrid="false"
     fit-margin-top="0"
     fit-margin-left="0"
     fit-margin-right="0"
     fit-margin-bottom="0"
     inkscape:zoom="0.24228027"
     inkscape:cx="390.74582"
     inkscape:cy="105.5203"
     inkscape:window-x="0"
     inkscape:window-y="0"
     inkscape:window-maximized="1"
     inkscape:current-layer="g842" /><g
     id="g842"
     inkscape:groupmode="layer"
     inkscape:label="ink_ext_XXXXXX"
     transform="matrix(1.3333333,0,0,-1.3333333,-5.9208343,1120.0199)"><g
       id="g844"
       transform="matrix(0.05260264,0,0,0.05260264,-15.807235,321.61192)"><path
         d="m 8740.39,5120 c 0,1999.48 -1620.91,3620.39 -3620.39,3620.39 -1999.48,0 -3620.39,-1620.91 -3620.39,-3620.39 0,-1999.48 1620.91,-3620.39 3620.39,-3620.39 1999.48,0 3620.39,1620.91 3620.39,3620.39"
         style="fill:#000080;fill-opacity:1;fill-rule:nonzero;stroke:none"
         id="path846"
         inkscape:connector-curvature="0" /><path
         d="M 7680,6619.61 C 7680,7205.25 7205.25,7680 6619.61,7680 c -585.63,0 -1060.38,-474.75 -1060.38,-1060.39 0,-585.63 474.75,-1060.38 1060.38,-1060.38 585.64,0 1060.39,474.75 1060.39,1060.38"
         style="fill:#ffffff;fill-opacity:1;fill-rule:nonzero;stroke:none"
         id="path848"
         inkscape:connector-curvature="0" /><g
         id="g850"
         transform="scale(10)"><text
           transform="matrix(1,0,0,-1,240.254,330.981)"
           style="font-variant:normal;font-weight:normal;font-size:325.83499146px;font-family:Helvetica;-inkscape-font-specification:Helvetica;writing-mode:lr-tb;fill:#ffffff;fill-opacity:1;fill-rule:nonzero;stroke:none"
           id="text854"><tspan
             x="0 181.16426 362.32852"
             y="0"
             sodipodi:role="line"
             id="tspan852">Lua</tspan></text>
</g><path
         d="M 9290.6,7245.03 C 9625.95,6586.86 9800.77,5858.67 9800.77,5120 9800.77,2534.88 7705.12,439.227 5120,439.227 2534.88,439.227 439.227,2534.88 439.227,5120 c 0,2585.12 2095.653,4680.77 4680.773,4680.77 904.9,0 1790.41,-262.3 2549.33,-755.14"
         style="fill:none;stroke:#808080;stroke-width:108.61199951;stroke-linecap:butt;stroke-linejoin:miter;stroke-miterlimit:10;stroke-dasharray:408.475;stroke-dashoffset:0;stroke-opacity:1"
         id="path856"
         inkscape:connector-curvature="0" /></g></g></svg>